<!DOCTYPE svg  PUBLIC '-//W3C//DTD SVG 1.1//EN'  'http://www.w3.org/Graphics/SVG/1.1/DTD/svg11.dtd'><svg xmlns="http://www.w3.org/2000/svg" xmlns:xlink="http://www.w3.org/1999/xlink"><symbol viewBox="0 0 14 9" id="chevron-down" xmlns="http://www.w3.org/2000/svg"><path d="M13.148 2.312a.505.505 0 000-.71L11.852.312a.495.495 0 00-.704 0L7 4.461 2.852.312a.495.495 0 00-.704 0L.852 1.602a.505.505 0 000 .71l5.796 5.79a.495.495 0 00.704 0l5.796-5.79z"/></symbol><symbol viewBox="0 0 9 13" id="chevron-left" xmlns="http://www.w3.org/2000/svg"><path d="M6.188 12.648a.505.505 0 00.71 0l1.29-1.296a.495.495 0 000-.704L4.039 6.5l4.149-4.148a.495.495 0 000-.704L6.898.352a.505.505 0 00-.71 0L.398 6.148a.495.495 0 000 .704l5.79 5.796z"/></symbol><symbol viewBox="0 0 9 13" id="chevron-right" xmlns="http://www.w3.org/2000/svg"><path d="M2.812 12.648a.505.505 0 01-.71 0l-1.29-1.296a.495.495 0 010-.704L4.961 6.5.812 2.352a.495.495 0 010-.704L2.102.352a.505.505 0 01.71 0l5.79 5.796a.495.495 0 010 .704l-5.79 5.796z"/></symbol><symbol viewBox="0 0 14 9" id="chevron-up" xmlns="http://www.w3.org/2000/svg"><path d="M13.148 7.398a.505.505 0 000-.71L7.352.897a.495.495 0 00-.704 0L.852 6.688a.505.505 0 000 .71l1.296 1.29a.495.495 0 00.704 0L7 4.538l4.148 4.148a.495.495 0 00.704 0l1.296-1.289z"/></symbol><symbol viewBox="0 0 512 512" id="cloud-download" xmlns="http://www.w3.org/2000/svg"><path d="M193.2 381.2l-11.6 11.4 74.5 73.4 74.5-73.4-11.6-11.4-54.7 53.8V192.9h-16.4V435z"/><path d="M399.2 164.4c0-1.2.2-2.3.2-3.5C399.4 97.4 346.5 46 282.6 46c-46.1 0-85.8 26.8-104.4 65.4-8.1-4-17.1-6.3-26.8-6.3-29.6 0-54.1 23.3-58.9 51.3-35.2 12-60.6 43.4-60.6 82.4 0 49.1 40.1 89.2 89.6 89.2H213v-16h-90.7c-40.9 0-74.2-33.2-74.2-73.7 0-31.4 20.2-57.5 50.2-67.7l8.4-2.8 1.5-8.7c3.6-21.3 22.1-38.8 43.9-38.8 6.9 0 13.7 1.6 19.9 4.7l13.5 6.7 6.5-13.6c16.6-34.4 52.1-56.6 90.4-56.6 55.3 0 100.9 42.8 100.9 97.6 0 13.1-.2 20.1-.2 20.1l15.2.1c36.7.5 65.6 30 65.6 66.4 0 36.3-29.8 66.1-66.5 66.3l-3.2.1H297v16h101c45 0 81.9-37.2 81.9-82.1 0-45-35.4-81.5-80.7-81.6z"/></symbol><symbol viewBox="0 0 16 19" id="doc" xmlns="http://www.w3.org/2000/svg"><path d="M14.746 4.388l-3.134-3.134C11.24.883 10.497.571 9.964.571h-9A.965.965 0 000 1.536v16.071c0 .533.432.964.964.964h13.5a.965.965 0 00.965-.964V6.036c0-.533-.312-1.276-.683-1.648zm-4.46-2.45c.17.06.341.15.412.22l3.144 3.144c.07.07.16.242.22.412h-3.776V1.937zm3.857 15.348H1.286V1.857H9v4.179c0 .532.432.964.964.964h4.179v10.286zM3.857 8.607v.643c0 .18.14.321.322.321h7.071c.18 0 .321-.14.321-.321v-.643c0-.18-.14-.321-.321-.321H4.179c-.181 0-.322.14-.322.321zm7.393 2.25H4.179c-.181 0-.322.14-.322.322v.642c0 .181.14.322.322.322h7.071c.18 0 .321-.14.321-.322v-.642c0-.181-.14-.322-.321-.322zm0 2.572H4.179c-.181 0-.322.14-.322.321v.643c0 .18.14.321.322.321h7.071c.18 0 .321-.14.321-.321v-.643c0-.18-.14-.321-.321-.321z"/></symbol><symbol viewBox="0 0 27 19" id="envelope" xmlns="http://www.w3.org/2000/svg"><g><path d="M0 0h27v19H0V0zm2 2v15h23V2H2z"/><path d="M13.562 8.087L1.627.174.469 1.921l13.086 8.676 13.231-8.673L25.638.171z"/></g></symbol><symbol viewBox="0.205 1.147 9.347 18" id="facebook" xmlns="http://www.w3.org/2000/svg"><path d="M9.552 4.133H7.853c-1.329 0-1.579.638-1.579 1.558v2.045h3.17l-.422 3.202H6.273v8.21h-3.31v-8.21H.205V7.735h2.758V5.377c0-2.737 1.677-4.229 4.123-4.229 1.167 0 2.173.086 2.466.13v2.855z"/></symbol><symbol viewBox="0 0 27 27" id="hamburger" xmlns="http://www.w3.org/2000/svg"><g><path d="M0 0h27v5H0zM0 22h27v5H0zM0 11h27v5H0z"/></g></symbol><symbol viewBox="0 0 48 48" id="help-circle" xmlns="http://www.w3.org/2000/svg"><g><g><path d="M24 0C10.746 0 0 10.744 0 24c0 13.254 10.745 24 24 24 13.256 0 24-10.746 24-24C48 10.744 37.256 0 24 0zm0 44C12.955 44 4 35.045 4 24 4 12.953 12.955 4 24 4c11.047 0 20 8.954 20 20 0 11.045-8.953 20-20 20z"/><path d="M20.614 29.056V27.79c0-1.094.234-2.045.7-2.854.468-.809 1.323-1.67 2.564-2.58 1.197-.855 1.986-1.55 2.367-2.086a3.02 3.02 0 00.573-1.794c0-.74-.274-1.304-.82-1.692-.547-.387-1.31-.58-2.29-.58-1.71 0-3.658.557-5.845 1.674L16 14.136C18.54 12.712 21.235 12 24.083 12c2.348 0 4.213.564 5.597 1.692 1.385 1.128 2.077 2.632 2.077 4.512 0 1.253-.285 2.335-.855 3.247-.57.911-1.652 1.937-3.247 3.076-1.093.809-1.786 1.424-2.076 1.846-.29.421-.436.974-.436 1.657v1.026h-4.529zm-.547 5.844c0-.957.257-1.68.77-2.17.512-.49 1.258-.735 2.238-.735.946 0 1.678.25 2.196.752.519.501.778 1.22.778 2.153 0 .9-.262 1.61-.786 2.128s-1.254.778-2.188.778c-.957 0-1.697-.254-2.221-.76-.525-.508-.787-1.223-.787-2.146z"/></g></g></symbol><symbol viewBox="0 0 22 20" id="hide" xmlns="http://www.w3.org/2000/svg"><path d="M3.207.793L1.793 2.207 4.076 4.49C1.2 6.838 0 10 0 10s3 8 11 8c2.076 0 3.806-.545 5.242-1.344l2.551 2.551 1.414-1.414-17-17zM11 2c-1.212 0-2.294.2-3.283.512l2.56 2.56C10.514 5.037 10.753 5 11 5a5 5 0 015 5c0 .247-.037.486-.072.723l3.43 3.43C21.203 12.102 22 10 22 10s-3-8-11-8zM6.834 7.248l1.463 1.463A2.942 2.942 0 008 10a3 3 0 003 3c.463 0 .9-.108 1.29-.297l1.462 1.463A4.96 4.96 0 0111 15a5 5 0 01-5-5c0-1.02.31-1.962.834-2.752z"/></symbol><symbol viewBox="0 0 20 20" id="important-circle" xmlns="http://www.w3.org/2000/svg"><path d="M10 0C4.477 0 0 4.477 0 10s4.477 10 10 10 10-4.477 10-10S15.523 0 10 0zm0 2a8 8 0 110 16 8 8 0 010-16zM9 5v6h2V5H9zm0 8v2h2v-2H9z"/></symbol><symbol viewBox="0 0 48 48" id="info-circle" xmlns="http://www.w3.org/2000/svg"><path d="M23.945 15.774c1.26 0 2.053-.864 2.016-1.944 0-1.115-.756-1.979-1.943-1.979-1.151 0-1.979.863-1.979 1.979 0 1.08.791 1.944 1.906 1.944zM25.602 34.941V20.145c0-1.303-1.053-1.413-1.351-1.418h-.566s-1.251.012-1.251 1.152v15.303c.023.346.175.967 1.001.967h1.181c.351-.028.986-.211.986-1.208z"/><path d="M24 0C10.746 0 0 10.744 0 24c0 13.254 10.745 24 24 24 13.256 0 24-10.746 24-24C48 10.744 37.256 0 24 0zm0 44C12.955 44 4 35.045 4 24 4 12.953 12.955 4 24 4c11.047 0 20 8.954 20 20 0 11.045-8.953 20-20 20z"/></symbol><symbol viewBox="0 0 17 17" id="linkedin" xmlns="http://www.w3.org/2000/svg"><path d="M2.202 4.433H2.18C.97 4.433.196 3.605.196 2.57c0-1.058.806-1.865 2.027-1.865 1.231 0 1.995.807 2.005 1.865.012 1.035-.773 1.863-2.026 1.863zM4 16.705H.403V5.904H4v10.801zm12.937 0h-3.586v-5.776c0-1.45-.522-2.441-1.819-2.441-.991 0-1.581.664-1.843 1.308-.087.24-.119.556-.119.883v6.027H5.983c.043-9.787 0-10.801 0-10.801h3.586v1.569h-.022c.469-.74 1.319-1.82 3.259-1.82 2.365 0 4.131 1.548 4.131 4.861v6.19z"/></symbol><symbol viewBox="0 0 20 26" id="lock" xmlns="http://www.w3.org/2000/svg"><g><path d="M0 10h20v16H0V10zm1.989 2.015V23.98H18.01V12.015H1.99z"/><path d="M13.288 17.288c.383-.384 1.15-.384 1.534 0 .383.383.383 1.15 0 1.534-.384.383-1.15.383-1.534 0-.384-.384-.384-1.15 0-1.534zM9.288 17.288c.383-.384 1.15-.384 1.534 0 .383.383.383 1.15 0 1.534-.384.383-1.15.383-1.534 0-.384-.384-.384-1.15 0-1.534zM5.288 17.288c.383-.384 1.15-.384 1.534 0 .383.383.383 1.15 0 1.534-.384.383-1.15.383-1.534 0-.384-.384-.384-1.15 0-1.534zM9.965 1.824c2.996 0 4.562 1.17 4.988 3.7V10h2V5.456l-.01-.131C16.386 1.84 13.962 0 9.964 0 5.963 0 3.544 1.867 2.999 5.397l-.01.127V10h2V5.59c.42-2.577 1.983-3.766 4.976-3.766z"/></g></symbol><symbol viewBox="0 0 420 420" id="magnifying-glass" xmlns="http://www.w3.org/2000/svg"><path d="M162.4.538c89.3 0 161.9 72.6 161.9 161.9 0 41.2-15.5 78.8-40.9 107.4l133.3 133.3c3.8 3.6 4 9.7.3 13.5-3.6 3.8-9.7 4-13.5.3l-.3-.3-133.5-133.5c-28.6 25.5-66.2 41.1-107.4 41.1-89.3 0-161.9-72.6-161.9-161.9.1-89.2 72.7-161.8 162-161.8zm1.266 19.1c-79 0-142.9 63.8-142.9 142.9 0 79 63.9 142.9 142.9 142.9s142.9-63.9 142.9-142.9-63.9-142.9-142.9-142.9z"/></symbol><symbol viewBox="0 0 20 20" id="ok-circle" xmlns="http://www.w3.org/2000/svg"><path d="M10 0C4.489 0 0 4.489 0 10s4.489 10 10 10 10-4.489 10-10S15.511 0 10 0zm0 2c4.43 0 8 3.57 8 8s-3.57 8-8 8-8-3.57-8-8 3.57-8 8-8zm4.293 4.293L8 12.586l-2.293-2.293-1.414 1.414L8 15.414l7.707-7.707-1.414-1.414z"/></symbol><symbol viewBox="392 312 16 16" id="play-circle" xmlns="http://www.w3.org/2000/svg"><path d="M398.192 316.352l5.584 3.616-5.584 3.616z"/><path d="M400 312.32c4.24 0 7.68 3.44 7.68 7.68s-3.439 7.68-7.68 7.68-7.68-3.44-7.68-7.68 3.44-7.68 7.68-7.68m0-.32c-4.416 0-8 3.584-8 8s3.584 8 8 8 8-3.584 8-8-3.584-8-8-8z"/></symbol><symbol viewBox="0 0 22 16" id="show" xmlns="http://www.w3.org/2000/svg"><path d="M11 0C3 0 0 8 0 8s3 8 11 8 11-8 11-8-3-8-11-8zm0 3a5 5 0 11-.001 10.001A5 5 0 0111 3zm0 2a3 3 0 100 6 3 3 0 000-6z"/></symbol><symbol viewBox="0 0 16 13" id="signout" xmlns="http://www.w3.org/2000/svg"><path d="M6.429 12.036c0-.372-.392-.322-.643-.322H2.893a1.612 1.612 0 01-1.607-1.607V3.036c0-.884.723-1.607 1.607-1.607h3.214c.452 0 .322-.683.322-.965a.33.33 0 00-.322-.321H2.893A2.894 2.894 0 000 3.036v7.071A2.894 2.894 0 002.893 13h3.214c.452 0 .322-.683.322-.964zM15.75 6.57c0-.17-.07-.331-.19-.452L10.094.655a.639.639 0 00-.452-.19.647.647 0 00-.643.642V4H4.5a.647.647 0 00-.643.643V8.5c0 .352.291.643.643.643H9v2.893c0 .351.291.643.643.643.17 0 .331-.07.452-.191l5.464-5.465c.12-.12.191-.28.191-.452z"/></symbol><symbol viewBox="-3 -2 16 16" id="sort" xmlns="http://www.w3.org/2000/svg"><path d="M7.666 9.34V4.667H6.334V9.34h-2L7 12l2.666-2.66h-2zM3 0L.333 2.66h2v4.674h1.333V2.66h2L3 0z"/></symbol><symbol viewBox="0 0 9 7" id="tick" xmlns="http://www.w3.org/2000/svg"><path d="M8.397 1.269c0 .144-.05.267-.152.368L4.323 5.559l-.737.737a.502.502 0 01-.368.152.502.502 0 01-.368-.152l-.737-.737L.152 3.6A.502.502 0 010 3.228c0-.144.05-.267.152-.368l.736-.736a.502.502 0 01.369-.152c.144 0 .267.05.368.152l1.593 1.598L6.772.163A.502.502 0 017.14.012c.145 0 .268.05.369.151L8.245.9a.502.502 0 01.152.369z"/></symbol><symbol viewBox="0 0 19 19" id="times" xmlns="http://www.w3.org/2000/svg"><path d="M6.728 9.556L.364 15.92l2.828 2.829 6.364-6.364 6.364 6.364 2.829-2.829-6.364-6.364 6.364-6.364L15.92.364 9.556 6.728 3.192.364.364 3.192l6.364 6.364z"/></symbol><symbol viewBox="0 0 19 16" id="twitter" xmlns="http://www.w3.org/2000/svg"><path d="M16.43 4.196c.011.159.011.319.011.479 0 4.876-3.712 10.496-10.495 10.496-2.09 0-4.031-.605-5.665-1.656.297.034.583.046.891.046a7.392 7.392 0 004.58-1.576 3.696 3.696 0 01-3.449-2.559c.227.034.456.057.696.057.331 0 .662-.046.971-.126a3.689 3.689 0 01-2.958-3.62v-.046c.49.274 1.062.445 1.667.469a3.687 3.687 0 01-1.644-3.072c0-.686.182-1.314.502-1.862a10.473 10.473 0 007.606 3.859 4.155 4.155 0 01-.091-.844A3.688 3.688 0 0112.741.552c1.062 0 2.021.445 2.695 1.165a7.268 7.268 0 002.341-.891 3.67 3.67 0 01-1.622 2.033 7.386 7.386 0 002.125-.571 8 8 0 01-1.85 1.908z"/></symbol><symbol viewBox="0 0 15 17" id="user" xmlns="http://www.w3.org/2000/svg"><path d="M14.143 13.684c0-2.27-.532-5.755-3.476-5.755-.311 0-1.627 1.396-3.596 1.396-1.968 0-3.284-1.396-3.596-1.396C.532 7.929 0 11.414 0 13.684c0 1.627 1.085 2.602 2.682 2.602h8.779c1.597 0 2.682-.975 2.682-2.602zm-3.214-8.97a3.858 3.858 0 00-7.715 0 3.858 3.858 0 007.715 0z"/></symbol></svg>